<?xml version="1.0" encoding="utf-8"?>
<!-- Generator: Adobe Illustrator 22.1.0, SVG Export Plug-In . SVG Version: 6.00 Build 0)  -->
<svg version="1.1" id="fish" xmlns="http://www.w3.org/2000/svg" xmlns:xlink="http://www.w3.org/1999/xlink" x="0px" y="0px"
	 viewBox="0 0 200 120" style="enable-background:new 0 0 200 120;" xml:space="preserve">
<style type="text/css">
	.st0{fill:none;stroke:#000000;stroke-width:0.75;stroke-miterlimit:10;}
	.st1{fill:none;stroke:#000000;stroke-width:0.75;stroke-miterlimit:10;stroke-dasharray:4.9596,4.9596;}
	.st2{fill:#F9B233;}
</style>
<g>
	<g>
		<line class="st0" x1="0.8" y1="83" x2="3.3" y2="83"/>
		<line class="st1" x1="8.3" y1="83" x2="194.3" y2="83"/>
		<line class="st0" x1="196.7" y1="83" x2="199.2" y2="83"/>
	</g>
</g>
<path id="svgmeter" class="st2" d="M119.9,92.8c-2.6-2.1-6.8-6.3-12-9.8c5.2-3.6,9.4-7.8,12-9.8l2-13.2l-4.2,3.5
	c-3.7,3.1-10.2,8.1-17.9,13.1C87.4,69,72.5,61.9,60.2,61.9c-26.4,0-40.9,16.7-41.5,17.4c-1.7,2-1.8,5.1,0,7.1
	c0.6,0.7,15.1,17.6,41.5,17.6c12.3,0,27.3-7.1,39.7-14.6c7.7,5,14.2,10,17.9,13.1l4.2,3.5L119.9,92.8z M60.2,93
	c-14.3,0-29.3-10.1-29.3-10.1s15-10,29.2-10c8.2,0,29,10.1,29,10.1S68.4,93,60.2,93z"/>
<circle cx="100.1" cy="83.1" r="3.4"/>
</svg>
