<?xml version="1.0" encoding="UTF-8" standalone="no"?>
<!DOCTYPE svg PUBLIC "-//W3C//DTD SVG 1.1//EN" "http://www.w3.org/Graphics/SVG/1.1/DTD/svg11.dtd">
<svg width="100%" height="100%" viewBox="0 0 2000 807" version="1.1"
     xmlns="http://www.w3.org/2000/svg"
     xml:space="preserve"
     style="fill-rule:evenodd;clip-rule:evenodd;stroke-linejoin:round;stroke-miterlimit:2;">
    <rect id="Artboard1" x="-0.335" y="-0.599" width="2000" height="806.95" style="fill:none;"/>
    <g>
        <g id="rotmeter">
            <path d="M554.462,112.75l-344.116,344.487l20.884,22.643l343.603,-346.876l-20.371,-20.254Z" style="fill:#ff9b00;fill-rule:nonzero;"/>
            <path d="M247.92,485.202c-11.898,11.971 -31.252,12.025 -43.226,0.121c-11.971,-11.902 -12.027,-31.254 -0.125,-43.226c11.907,-11.971 31.256,-12.029 43.228,-0.123c11.971,11.898 12.029,31.256 0.123,43.228Z" style="fill:#ff9b00;fill-rule:nonzero;"/>
        </g>
        <path d="M578.928,159.971l162.428,616.235l50.331,0l144.352,-304l10.874,0l160.698,304.046l44.666,-0.046l0.548,-743.152l135.464,-0.033l0.571,743.231l37.336,0l151.077,-163.025l11.433,-0.082l142.025,163.107l37.448,-0.138l-171.182,-195.277l-28.205,0.033l-151.127,158.738l0,-739.265l-196.557,0.896l0,737.509l-156.28,-297.087l-47.321,0.167l-147.815,304.345l-180.556,-663.349l-48.696,0.013l-201.711,693.369l37.199,0l174.273,-616.235" style="fill:#a80000;fill-rule:nonzero;"/>
        <rect x="338.713" y="776.111" width="1329.47" height="31.182" style="fill:#a81d22;"/>
    </g>
</svg>
