<?xml version="1.0" encoding="UTF-8" standalone="no"?>
<!DOCTYPE svg PUBLIC "-//W3C//DTD SVG 1.1//EN" "http://www.w3.org/Graphics/SVG/1.1/DTD/svg11.dtd">
<svg width="100%" height="100%" viewBox="0 0 1500 807" version="1.1" xmlns="http://www.w3.org/2000/svg" xmlns:xlink="http://www.w3.org/1999/xlink" xml:space="preserve" xmlns:serif="http://www.serif.com/" style="fill-rule:evenodd;clip-rule:evenodd;stroke-linejoin:round;stroke-miterlimit:2;">
    <g>
        <rect id="Artboard1" x="79.864" y="-0.599" width="1342.1" height="806.95" style="fill:none;"/>
        <path d="M1418.18,776.114l-171.182,-195.277l-28.205,0.033l-151.127,158.738l0,-739.265l-196.557,0.896l0,737.509l-156.28,-297.087l-47.321,0.167l-147.815,304.345l-180.556,-663.349l-48.696,0.013l-201.711,693.369" style="fill:#fff;fill-rule:nonzero;"/>
        <g id="rotmeter">
            <path d="M299.775,82.501l0.262,505.916l30.779,1.244l-2.314,-507.242l-28.727,0.082Z" style="fill-rule:nonzero;"/>
            <path d="M346.38,581.623c0.053,16.877 -13.595,30.601 -30.479,30.65c-16.881,0.049 -30.604,-13.595 -30.654,-30.476c-0.046,-16.884 13.596,-30.608 30.48,-30.654c16.877,-0.052 30.607,13.596 30.653,30.48Z" style="fill-rule:nonzero;"/>
        </g>
    </g>
</svg>
