<?xml version="1.0" encoding="UTF-8"?>
<svg viewBox="0 0 575.37738 334.15765" xmlns="http://www.w3.org/2000/svg">
 <g transform="translate(-87.289 -365.05)">
  <text x="87.28936" y="375.28113" font-family="Times New Roman" font-size="14.998"></text>
  <path d="m150.45 367.89c-15.391 0-27.858 12.468-27.858 27.861v227.71c0 15.393 12.467 27.861 27.858 27.861h448.66c15.391 0 27.84-12.468 27.84-27.861v-227.71c0-15.393-12.448-27.861-27.84-27.861z" fill="#fff" fill-rule="evenodd"/>
  <path d="m150.45 367.89c-15.391 0-27.858 12.468-27.858 27.861v227.71c0 15.393 12.467 27.861 27.858 27.861h448.66c15.391 0 27.84-12.468 27.84-27.861v-227.71c0-15.393-12.448-27.861-27.84-27.861z" fill="#e3dbdb" stroke="#000" stroke-linecap="round" stroke-linejoin="round" stroke-width="5.6242"/>
  <path d="m278.25 422.72c-9.6736 6.4872-45.237 20.549-50.355 28.124-5.1367 7.6121 30.052 8.0621 19.741 17.624-10.311 9.487-81.869 34.367-81.738 39.86 0.13123 5.4372 77.238-15.112 82.431-7.2371 5.2492 7.8746-54.742 47.248-51.067 54.616 3.6932 7.3121 65.559-23.249 73.245-10.631 7.6301 12.637-34.739 84.502-27.052 86.246 7.7426 1.7624 54.367-71.059 73.358-75.746s30.989 50.754 40.625 47.623c9.6736-3.1123-5.3804-61.741 17.247-66.297 22.609-4.631 103.48 38.548 118.48 38.679s-50.317-34.686-28.44-38.004c21.803-3.2998 142.24 21.261 159.35 18.074s-53.242-27.749-56.485-37.123c-3.262-9.3745 23.996-12.449 36.857-19.255 12.879-6.8059 48.63-16.068 40.381-21.749s-68.877-8.9995-89.987-12.431c-21.128-3.4498-44.056-2.6999-36.876-8.3808s86.987-24.13 79.807-25.874c-7.2552-1.7437-111.3 22.499-122.98 15.43-11.698-7.0496 58.979-53.81 52.68-57.616-6.374-3.806-79.563 35.004-90.924 34.929-11.38 0 26.921-32.923 22.609-35.117-4.3118-2.1186-38.619 22.068-48.668 22.068-10.067-0.075-3.3745-21.318-11.886-22.011-8.4925-0.74996-28.871 16.312-39.182 17.624-10.367 1.3124-17.116-11.549-23.115-9.937-5.9429 1.6874-4.5556 17.249-12.879 19.818-8.305 2.6249-29.358-4.556-37.119-3.9935-7.7426 0.56247 1.6872 4.181-8.0613 10.687" fill="#800080" fill-rule="evenodd"/>
  <path d="m204.39 547.66c7.7426-16.855 16.453-34.801 39.456-54.412s48.761-44.323 99.454-64.234c50.711-19.911 152.43-45.26 204.7-55.31s95.105-6.3372 108.77-4.9872c13.648 1.3499-10.105 1.5562-26.715 13.274-16.61 11.699-52.117 45.991-72.852 57.091-20.716 11.099-22.347 1.2374-51.499 9.562s-90.605 23.024-123.6 40.31c-33.014 17.287-48.068 48.972-74.558 63.315-26.509 14.324-63.628 19.068-84.419 22.668-20.772 3.5998-30.539 1.2749-40.288-1.0312" fill="#fff" stroke="#000" stroke-linejoin="round" stroke-width="3.7494"/>
  <path d="m127.21 600.51c-3.187 0.80621-6.3084 1.6218-9.308 4.3685-2.9996 2.7561-8.8112 9.187-8.6893 12.187s6.6271 5.3153 9.3736 5.8122c2.7465 0.50623 4.9961-1.1249 7.1896-2.9342 2.184-1.8093 4.743-4.6216 5.8116-7.8746 1.0592-3.253 0.87174-7.434 0.68427-11.559" fill="#fff" fill-rule="evenodd"/>
  <path d="m127.21 600.51c-3.187 0.80621-6.3084 1.6218-9.308 4.3685-2.9996 2.7561-8.8112 9.187-8.6893 12.187s6.6271 5.3153 9.3736 5.8122c2.7465 0.50623 4.9961-1.1249 7.1896-2.9342 2.184-1.8093 4.743-4.6216 5.8116-7.8746 1.0592-3.253 0.87174-7.434 0.68427-11.559" fill="none" stroke="#fff" stroke-linecap="round" stroke-linejoin="round" stroke-width=".93736"/>
  <path d="m146.21 611.78c-4.1994-4.3498-8.3425-8.7183 14.567-24.449s77.257-46.666 122.85-69.821c45.612-23.174 108.17-52.085 150.73-69.128 42.575-17.043 87.399-27.542 106.4-33.767-42.303 8.3433-86.115 17.474-143.84 40.573s-151.74 69.915-201.06 97.345c-49.343 27.449-82.938 55.853-94.861 67.421-11.923 11.587 15.41 3.7686 23.19 2.1561 7.7988-1.6124 26.471-10.706 23.621-11.831-2.8496-1.1437-33.745 4.3123-40.513 5.2122" fill="#fff" stroke="#000" stroke-linejoin="round" stroke-width="3.7494"/>
  <path d="m232.09 651.23c-9.861 11.999-19.741 24.074-22.497 32.005-2.7746 7.9308 3.1683 17.699 5.7929 15.712 2.6059-2.0061 5.8679-17.493 10.011-27.692 4.1431-10.218 9.4298-22.011 14.792-33.767" fill="#800080" fill-rule="evenodd"/>
  <path d="m360.19 618.78c-1.5935 1.528 1.8091 22.302 4.0588 24.927s9.9266-4.3779 9.5423-9.0745c-0.37494-4.6966-11.998-17.371-13.601-15.852" fill="#800080" fill-rule="evenodd"/>
  <path d="m509.96 588.48c-1.3873 2.5311 2.0997 7.7996 5.9429 9.4682 3.8244 1.6499 15.673 2.9624 17.06 0.43123 1.3685-2.5311-4.0494-13.368-8.9237-15.805s-12.711 3.3748-14.079 5.9059" fill="#800080" fill-rule="evenodd"/>
  <path d="m138.66 515.46c1.6123-2.7842-20.069-2.4749-25.993 0.31874-5.9241 2.803-14.192 15.205-9.7579 16.527s34.139-14.071 35.751-16.846" fill="#800080" fill-rule="evenodd"/>
  <path d="m252.26 382.89c7.6213 9.3899 18.119 16.068 21.747 17.062 3.6276 1.0031 0.25308-7.4996 0-10.874s1.3123-6.7496-1.5654-9.3089c-2.8683-2.5592-12.373-6.443-15.495-6.1872-5.0194 0.41148-8.9674 4.0349-4.6868 9.3089z" fill="#800080" fill-rule="evenodd"/>
  <path d="m166.96 438.71c-6.1866 3.8717-31.495 19.433-24.812 21.749 6.6928 2.3061 53.992-4.1248 65.118-7.7527s6.1866-11.437 1.5654-13.996c-4.6306-2.5686-22-1.2562-29.499-1.4999-7.4989-0.25311-6.1866-2.3811-12.373 1.4999" fill="#800080" fill-rule="evenodd"/>
 </g>
</svg>
