<?xml version="1.0" encoding="UTF-8" standalone="no"?>
<!DOCTYPE svg PUBLIC "-//W3C//DTD SVG 1.1//EN" "http://www.w3.org/Graphics/SVG/1.1/DTD/svg11.dtd">
<svg width="100%" height="100%" viewBox="0 0 576 335" version="1.1" xmlns="http://www.w3.org/2000/svg" xmlns:xlink="http://www.w3.org/1999/xlink" xml:space="preserve" xmlns:serif="http://www.serif.com/" style="fill-rule:evenodd;clip-rule:evenodd;stroke-linecap:round;stroke-linejoin:round;">
    <g transform="matrix(1,0,0,1,-87.289,-365.05)">
        <path d="M150.45,367.89C135.059,367.89 122.592,380.358 122.592,395.751L122.592,623.461C122.592,638.854 135.059,651.322 150.45,651.322L599.11,651.322C614.501,651.322 626.95,638.854 626.95,623.461L626.95,395.751C626.95,380.358 614.502,367.89 599.11,367.89L150.45,367.89Z" style="fill:#fff;"/>
        <path d="M150.45,367.89C135.059,367.89 122.592,380.358 122.592,395.751L122.592,623.461C122.592,638.854 135.059,651.322 150.45,651.322L599.11,651.322C614.501,651.322 626.95,638.854 626.95,623.461L626.95,395.751C626.95,380.358 614.502,367.89 599.11,367.89L150.45,367.89Z" style="fill:#e3dbdb;fill-rule:nonzero;stroke:#000;stroke-width:5.62px;"/>
        <path d="M278.25,422.72C268.576,429.207 233.013,443.269 227.895,450.844C222.758,458.456 257.947,458.906 247.636,468.468C237.325,477.955 165.767,502.835 165.898,508.328C166.029,513.765 243.136,493.216 248.329,501.091C253.578,508.966 193.587,548.339 197.262,555.707C200.955,563.019 262.821,532.458 270.507,545.076C278.137,557.713 235.768,629.578 243.455,631.322C251.198,633.084 297.822,560.263 316.813,555.576C335.804,550.889 347.802,606.33 357.438,603.199C367.112,600.087 352.058,541.458 374.685,536.902C397.294,532.271 478.165,575.45 493.165,575.581C508.165,575.712 442.848,540.895 464.725,537.577C486.528,534.277 606.965,558.838 624.075,555.651C641.185,552.464 570.833,527.902 567.59,518.528C564.328,509.153 591.586,506.079 604.447,499.273C617.326,492.467 653.077,483.205 644.828,477.524C636.579,471.843 575.951,468.524 554.841,465.093C533.713,461.643 510.785,462.393 517.965,456.712C525.145,451.031 604.952,432.582 597.772,430.838C590.517,429.094 486.472,453.337 474.792,446.268C463.094,439.219 533.771,392.458 527.472,388.652C521.098,384.846 447.909,423.656 436.548,423.581C425.168,423.581 463.469,390.658 459.157,388.464C454.845,386.345 420.538,410.532 410.489,410.532C400.422,410.457 407.114,389.214 398.603,388.521C390.11,387.771 369.732,404.833 359.421,406.145C349.054,407.458 342.305,394.596 336.306,396.208C330.363,397.895 331.75,413.457 323.427,416.026C315.122,418.651 294.069,411.47 286.308,412.033C278.565,412.595 287.995,416.214 278.247,422.72" style="fill:#800080;"/>
        <path id="feather" d="M204.39,547.66C212.133,530.805 220.843,512.859 243.846,493.248C266.849,473.637 292.607,448.925 343.3,429.014C394.011,409.103 495.73,383.754 548,373.704C600.27,363.654 643.105,367.367 656.77,368.717C670.418,370.067 646.665,370.273 630.055,381.991C613.445,393.69 577.938,427.982 557.203,439.082C536.487,450.181 534.856,440.319 505.704,448.644C476.552,456.968 415.099,471.668 382.104,488.954C349.09,506.241 334.036,537.926 307.546,552.269C281.037,566.593 243.918,571.337 223.127,574.937C202.355,578.537 192.588,576.212 182.839,573.906" style="fill-rule:nonzero;stroke:#000;stroke-width:3.75px;stroke-linecap:butt;"/>
        <path d="M127.21,600.51C124.023,601.316 120.902,602.132 117.902,604.879C114.902,607.635 109.091,614.066 109.213,617.066C109.335,620.066 115.84,622.381 118.586,622.878C121.333,623.384 123.582,621.753 125.776,619.944C127.96,618.134 130.519,615.322 131.587,612.069C132.647,608.816 132.459,604.635 132.272,600.51" style="fill:#fff;"/>
        <path d="M127.21,600.51C124.023,601.316 120.902,602.132 117.902,604.879C114.902,607.635 109.091,614.066 109.213,617.066C109.335,620.066 115.84,622.381 118.586,622.878C121.333,623.384 123.582,621.753 125.776,619.944C127.96,618.134 130.519,615.322 131.587,612.069C132.647,608.816 132.459,604.635 132.272,600.51" style="fill:none;fill-rule:nonzero;stroke:#fff;stroke-width:0.94px;"/>
        <path id="quill" d="M146.21,611.78C142.011,607.43 137.868,603.062 160.777,587.331C183.687,571.6 238.034,540.665 283.627,517.51C329.239,494.336 391.797,465.425 434.357,448.382C476.932,431.339 521.756,420.84 540.757,414.615C498.454,422.958 454.642,432.089 396.917,455.188C339.192,478.287 245.177,525.103 195.857,552.533C146.514,579.982 112.919,608.386 100.996,619.954C89.073,631.541 116.406,623.723 124.186,622.11C131.985,620.498 150.657,611.404 147.807,610.279C144.957,609.135 114.062,614.591 107.294,615.491" style="fill-rule:nonzero;stroke:#000;stroke-width:3.75px;stroke-linecap:butt;"/>
        <path d="M232.09,651.23C222.229,663.229 212.349,675.304 209.593,683.235C206.818,691.166 212.761,700.934 215.386,698.947C217.992,696.941 221.254,681.454 225.397,671.255C229.54,661.037 234.827,649.244 240.189,637.488" style="fill:#800080;"/>
        <path d="M360.19,618.78C358.597,620.308 361.999,641.082 364.249,643.707C366.499,646.332 374.175,639.329 373.791,634.632C373.416,629.936 361.793,617.262 360.19,618.781" style="fill:#800080;"/>
        <path d="M509.96,588.48C508.573,591.011 512.06,596.28 515.903,597.948C519.727,599.598 531.576,600.911 532.963,598.379C534.331,595.848 528.913,585.011 524.039,582.574C519.165,580.137 511.328,585.949 509.96,588.48" style="fill:#800080;"/>
        <path d="M138.66,515.46C140.272,512.676 118.591,512.985 112.667,515.779C106.743,518.582 98.475,530.984 102.909,532.306C107.343,533.628 137.048,518.235 138.66,515.46" style="fill:#800080;"/>
        <path d="M252.26,382.89C259.881,392.28 270.379,398.958 274.007,399.952C277.635,400.955 274.26,392.452 274.007,389.078C273.754,385.704 275.319,382.328 272.442,379.769C269.573,377.21 260.069,373.326 256.947,373.582C251.927,373.993 247.979,377.617 252.26,382.891L252.26,382.89Z" style="fill:#800080;"/>
        <path d="M166.96,438.71C160.773,442.582 135.465,458.143 142.148,460.459C148.841,462.765 196.14,456.334 207.266,452.706C218.392,449.078 213.453,441.269 208.831,438.71C204.201,436.142 186.831,437.454 179.332,437.21C171.834,436.957 173.146,434.829 166.959,438.71" style="fill:#800080;"/>
    </g>
</svg>
