<?xml version="1.0" encoding="utf-8"?>
<!-- Generator: Adobe Illustrator 22.1.0, SVG Export Plug-In . SVG Version: 6.00 Build 0)  -->
<svg version="1.1" id="fish" xmlns="http://www.w3.org/2000/svg" xmlns:xlink="http://www.w3.org/1999/xlink" x="0px" y="0px"
	 viewBox="0 0 104.5 46.1" style="enable-background:new 0 0 104.5 46.1;" xml:space="preserve">
<style type="text/css">
	.st0{fill:#F9B233;}
</style>
<path class="st0" d="M102.5,32.9c-2.6-2.1-6.8-6.3-12-9.8c5.2-3.6,9.4-7.8,12-9.8l2-13.2l-4.2,3.5c-3.7,3.1-10.2,8.1-17.9,13.1
	C70,9.1,55.1,2,42.8,2C16.4,2,1.9,18.7,1.3,19.4c-1.7,2-1.8,5.1,0,7.1c0.6,0.7,15.1,17.6,41.5,17.6c12.3,0,27.3-7.1,39.7-14.6
	c7.7,5,14.2,10,17.9,13.1l4.2,3.5L102.5,32.9z M42.8,33.1C28.5,33.1,13.5,23,13.5,23s15-10,29.2-10c8.2,0,29,10.1,29,10.1
	S51,33.1,42.8,33.1z"/>
</svg>
