<?xml version="1.0" encoding="UTF-8" standalone="no"?><!DOCTYPE svg PUBLIC "-//W3C//DTD SVG 1.1//EN" "http://www.w3.org/Graphics/SVG/1.1/DTD/svg11.dtd"><svg width="100%" height="100%" viewBox="0 0 447 313" version="1.1" xmlns="http://www.w3.org/2000/svg" xmlns:xlink="http://www.w3.org/1999/xlink" xml:space="preserve" xmlns:serif="http://www.serif.com/" style="fill-rule:evenodd;clip-rule:evenodd;stroke-linecap:round;stroke-linejoin:round;stroke-miterlimit:1.5;"><g><path d="M21.952,245.414l61.382,-210.947l14.807,-0.036l55.095,202.053l45.114,-92.709l14.258,0.02l47.957,90.435l-0.284,-224.726l59.803,-0.264l-0.006,225.486l46.255,-48.691l8.372,0.074l52.064,59.401l-404.817,-0.096Z" style="fill:url(#_Linear1);stroke:#000;stroke-width:0.24px;"/><path d="M33.222,245.665l53.095,-187.745l-0.349,136.624l9.375,0.375l-0.274,-136.999l49.486,187.745l15.334,0l43.979,-92.618l3.313,0l48.959,92.632l13.608,-0.014l0.167,-226.412l41.271,-0.01l0.174,226.436l11.375,0l46.028,-49.668l3.483,-0.025l43.27,49.693l11.417,0l-52.161,-59.536l-8.593,0.01l-46.043,48.362l0,-225.228l-59.884,0.273l0,224.693l-47.613,-90.512l-14.417,0.051l-45.034,92.723l-55.009,-202.099l-14.836,0.004l-61.454,211.245l11.333,0Z" style="fill:#a80000;fill-rule:nonzero;"/><path d="M100.093,192.482c0,5.143 -4.17,9.312 -9.313,9.312c-5.143,0 -9.312,-4.169 -9.312,-9.312c0,-5.143 4.169,-9.313 9.312,-9.313c5.143,0 9.313,4.17 9.313,9.313Z" style="fill:#a81d22;fill-rule:nonzero;"/><g id="Text"><path d="M38.543,272.926c-0.424,-0.885 -1.117,-1.732 -2.079,-2.464c-0.924,-0.693 -2.426,-1.501 -4.428,-2.348c-1.809,-0.732 -3.041,-1.309 -3.734,-1.771c-0.693,-0.462 -1.194,-0.924 -1.463,-1.425c-0.308,-0.539 -0.462,-1.116 -0.462,-1.848c0,-1.039 0.385,-1.886 1.116,-2.502c0.77,-0.655 1.848,-0.963 3.311,-0.963c1.925,0 4.12,0.501 6.545,1.54l1.425,-3.657c-2.58,-1.155 -5.198,-1.733 -7.854,-1.733c-2.734,0 -4.928,0.655 -6.545,1.964c-1.656,1.309 -2.464,3.118 -2.464,5.428c0,1.81 0.539,3.388 1.54,4.697c1.039,1.309 2.81,2.464 5.313,3.465c2.425,1.001 4.042,1.848 4.812,2.541c0.77,0.732 1.155,1.579 1.155,2.618c0,1.155 -0.423,2.041 -1.27,2.734c-0.847,0.654 -2.156,1.001 -3.927,1.001c-1.232,0 -2.541,-0.154 -3.927,-0.501c-1.425,-0.346 -2.772,-0.808 -4.004,-1.386l0,4.235c1.963,0.963 4.504,1.463 7.623,1.463c3.118,0 5.544,-0.693 7.315,-2.079c1.771,-1.386 2.656,-3.311 2.656,-5.775c0,-1.232 -0.231,-2.31 -0.654,-3.234Z" style="fill:#fff;fill-rule:nonzero;"/><path d="M59.556,283.63l0,-3.85l-11.627,0l0,-23.639l-4.504,0l0,27.489l16.131,0Z" style="fill:#fff;fill-rule:nonzero;"/><path d="M85.043,283.63l-10.279,-27.605l-4.89,0l-10.279,27.605l4.735,0l2.695,-7.623l10.511,0l2.733,7.623l4.774,0Zm-16.709,-11.512l2.464,-7.161c0.655,-1.848 1.155,-3.503 1.502,-5.043c0.115,0.5 0.346,1.27 0.693,2.348c0.308,1.078 0.577,1.887 0.77,2.387l2.579,7.469l-8.008,0Z" style="fill:#fff;fill-rule:nonzero;"/><path d="M103.451,283.63l8.239,-22.908l0.154,0c-0.038,0.462 -0.115,1.771 -0.154,3.966c-0.077,2.194 -0.115,3.965 -0.115,5.351l0,13.591l4.312,0l0,-27.489l-6.353,0l-7.854,21.868l-0.115,0l-7.623,-21.868l-6.353,0l0,27.489l4.081,0l0,-13.36c0,-3.003 -0.115,-6.198 -0.308,-9.586l0.154,0l7.97,22.946l3.965,0Z" style="fill:#fff;fill-rule:nonzero;"/><path d="M137.903,283.63l8.239,-22.908l0.154,0c-0.038,0.462 -0.115,1.771 -0.154,3.966c-0.077,2.194 -0.115,3.965 -0.115,5.351l0,13.591l4.312,0l0,-27.489l-6.353,0l-7.854,21.868l-0.115,0l-7.623,-21.868l-6.353,0l0,27.489l4.081,0l0,-13.36c0,-3.003 -0.115,-6.198 -0.308,-9.586l0.154,0l7.97,22.946l3.965,0Z" style="fill:#fff;fill-rule:nonzero;"/><path d="M172.047,279.818l-11.05,0l0,-8.624l10.357,0l0,-3.773l-10.357,0l0,-7.469l11.05,0l0,-3.811l-15.554,0l0,27.489l15.554,0l0,-3.812Z" style="fill:#fff;fill-rule:nonzero;"/><path d="M199.81,256.141l-4.12,0l0,14.399c0,1.001 0.039,2.425 0.116,4.235c0.077,1.809 0.115,2.887 0.154,3.157l-0.116,0l-13.475,-21.791l-5.467,0l0,27.489l4.081,0l0,-14.284c0,-1.925 -0.077,-4.081 -0.269,-6.391l-0.077,-1.232l0.154,0l13.513,21.907l5.506,0l0,-27.489Z" style="fill:#fff;fill-rule:nonzero;"/><rect x="214.9" y="256.141" width="4.505" height="27.489" style="fill:#fff;fill-rule:nonzero;"/><path d="M241.433,283.63l8.239,-22.908l0.154,0c-0.038,0.462 -0.115,1.771 -0.154,3.966c-0.077,2.194 -0.115,3.965 -0.115,5.351l0,13.591l4.312,0l0,-27.489l-6.353,0l-7.854,21.868l-0.115,0l-7.623,-21.868l-6.353,0l0,27.489l4.081,0l0,-13.36c0,-3.003 -0.115,-6.198 -0.308,-9.586l0.154,0l7.97,22.946l3.965,0Z" style="fill:#fff;fill-rule:nonzero;"/><path d="M284.154,272.927c-0.424,-0.886 -1.117,-1.733 -2.079,-2.464c-0.924,-0.693 -2.426,-1.502 -4.428,-2.349c-1.809,-0.731 -3.041,-1.309 -3.734,-1.771c-0.693,-0.462 -1.194,-0.924 -1.463,-1.424c-0.308,-0.539 -0.462,-1.117 -0.462,-1.848c0,-1.04 0.385,-1.887 1.116,-2.503c0.77,-0.654 1.848,-0.962 3.311,-0.962c1.925,0 4.12,0.5 6.545,1.54l1.425,-3.658c-2.58,-1.155 -5.198,-1.732 -7.854,-1.732c-2.734,0 -4.928,0.654 -6.545,1.963c-1.656,1.309 -2.464,3.119 -2.464,5.429c0,1.809 0.539,3.388 1.54,4.697c1.039,1.309 2.81,2.464 5.313,3.465c2.425,1.001 4.042,1.848 4.812,2.541c0.77,0.731 1.155,1.578 1.155,2.618c0,1.155 -0.423,2.04 -1.27,2.733c-0.847,0.655 -2.156,1.001 -3.927,1.001c-1.232,0 -2.541,-0.154 -3.927,-0.5c-1.425,-0.347 -2.772,-0.809 -4.004,-1.386l0,4.235c1.963,0.962 4.504,1.463 7.623,1.463c3.118,0 5.544,-0.693 7.315,-2.079c1.771,-1.386 2.656,-3.311 2.656,-5.775c0,-1.232 -0.231,-2.31 -0.654,-3.234Z" style="fill:#fff;fill-rule:nonzero;"/><path d="M304.012,260.106c1.04,0.347 2.002,0.732 2.926,1.155l1.617,-3.734c-2.387,-1.194 -4.966,-1.771 -7.777,-1.771c-2.656,0 -5.005,0.577 -6.968,1.694c-2.002,1.155 -3.504,2.81 -4.543,4.928c-1.04,2.156 -1.579,4.658 -1.579,7.507c0,4.543 1.078,8.047 3.234,10.472c2.156,2.426 5.236,3.658 9.279,3.658c2.733,0 5.159,-0.424 7.315,-1.232l0,-3.85c-1.155,0.346 -2.31,0.654 -3.388,0.885c-1.078,0.231 -2.233,0.347 -3.388,0.347c-2.695,0 -4.736,-0.847 -6.16,-2.58c-1.425,-1.732 -2.156,-4.273 -2.156,-7.661c0,-3.234 0.731,-5.737 2.233,-7.585c1.463,-1.809 3.503,-2.733 6.083,-2.733c1.155,0 2.233,0.154 3.272,0.5Z" style="fill:#fff;fill-rule:nonzero;"/><path d="M334.034,256.141l-4.504,0l0,11.242l-12.667,0l0,-11.242l-4.504,0l0,27.489l4.504,0l0,-12.397l12.667,0l0,12.397l4.504,0l0,-27.489Z" style="fill:#fff;fill-rule:nonzero;"/><path d="M356.325,283.63l0,-3.85l-11.627,0l0,-23.639l-4.504,0l0,27.489l16.131,0Z" style="fill:#fff;fill-rule:nonzero;"/><path d="M381.042,259.413c-2.233,-2.464 -5.39,-3.696 -9.471,-3.696c-4.158,0 -7.353,1.232 -9.586,3.658c-2.233,2.425 -3.35,5.89 -3.35,10.433c0,4.543 1.117,8.047 3.35,10.511c2.233,2.464 5.39,3.696 9.548,3.696c4.081,0 7.276,-1.232 9.509,-3.735c2.233,-2.464 3.35,-5.967 3.35,-10.433c0,-4.466 -1.117,-7.97 -3.35,-10.434Zm-15.554,2.772c1.348,-1.732 3.388,-2.618 6.083,-2.618c2.657,0 4.659,0.886 6.006,2.618c1.348,1.733 2.041,4.274 2.041,7.662c0,3.426 -0.693,6.006 -2.041,7.738c-1.347,1.733 -3.388,2.58 -6.044,2.58c-2.695,0 -4.697,-0.886 -6.083,-2.618c-1.348,-1.733 -2.041,-4.312 -2.041,-7.7c0,-3.388 0.693,-5.929 2.079,-7.662Z" style="fill:#fff;fill-rule:nonzero;"/><path d="M404.416,272.927c-0.424,-0.886 -1.117,-1.733 -2.079,-2.464c-0.924,-0.693 -2.426,-1.502 -4.428,-2.349c-1.809,-0.731 -3.041,-1.309 -3.734,-1.771c-0.693,-0.462 -1.194,-0.924 -1.463,-1.424c-0.308,-0.539 -0.462,-1.117 -0.462,-1.848c0,-1.04 0.385,-1.887 1.116,-2.503c0.77,-0.654 1.848,-0.962 3.311,-0.962c1.925,0 4.12,0.5 6.545,1.54l1.425,-3.658c-2.58,-1.155 -5.198,-1.732 -7.854,-1.732c-2.734,0 -4.928,0.654 -6.545,1.963c-1.656,1.309 -2.464,3.119 -2.464,5.429c0,1.809 0.539,3.388 1.54,4.697c1.039,1.309 2.81,2.464 5.313,3.465c2.425,1.001 4.042,1.848 4.812,2.541c0.77,0.731 1.155,1.578 1.155,2.618c0,1.155 -0.423,2.04 -1.27,2.733c-0.847,0.655 -2.156,1.001 -3.927,1.001c-1.232,0 -2.541,-0.154 -3.927,-0.5c-1.425,-0.347 -2.772,-0.809 -4.004,-1.386l0,4.235c1.963,0.962 4.504,1.463 7.623,1.463c3.118,0 5.544,-0.693 7.315,-2.079c1.771,-1.386 2.656,-3.311 2.656,-5.775c0,-1.232 -0.231,-2.31 -0.654,-3.234Z" style="fill:#fff;fill-rule:nonzero;"/><path d="M424.505,272.927c-0.424,-0.886 -1.117,-1.733 -2.079,-2.464c-0.924,-0.693 -2.426,-1.502 -4.428,-2.349c-1.809,-0.731 -3.041,-1.309 -3.734,-1.771c-0.693,-0.462 -1.194,-0.924 -1.463,-1.424c-0.308,-0.539 -0.462,-1.117 -0.462,-1.848c0,-1.04 0.385,-1.887 1.116,-2.503c0.77,-0.654 1.848,-0.962 3.311,-0.962c1.925,0 4.12,0.5 6.545,1.54l1.425,-3.658c-2.58,-1.155 -5.198,-1.732 -7.854,-1.732c-2.734,0 -4.928,0.654 -6.545,1.963c-1.656,1.309 -2.464,3.119 -2.464,5.429c0,1.809 0.539,3.388 1.54,4.697c1.039,1.309 2.81,2.464 5.313,3.465c2.425,1.001 4.042,1.848 4.812,2.541c0.77,0.731 1.155,1.578 1.155,2.618c0,1.155 -0.423,2.04 -1.27,2.733c-0.847,0.655 -2.156,1.001 -3.927,1.001c-1.232,0 -2.541,-0.154 -3.927,-0.5c-1.425,-0.347 -2.772,-0.809 -4.004,-1.386l0,4.235c1.963,0.962 4.504,1.463 7.623,1.463c3.118,0 5.544,-0.693 7.315,-2.079c1.771,-1.386 2.656,-3.311 2.656,-5.775c0,-1.232 -0.231,-2.31 -0.654,-3.234Z" style="fill:#fff;fill-rule:nonzero;"/></g><rect x="-1.884" y="245.476" width="455.342" height="4.976" style="fill:#a81d22;"/></g><defs><linearGradient id="_Linear1" x1="0" y1="0" x2="1" y2="0" gradientUnits="userSpaceOnUse" gradientTransform="matrix(1.91784,-191.156,191.156,1.91784,229.163,310.905)"><stop offset="0" style="stop-color:#000;stop-opacity:1"/><stop offset="1" style="stop-color:#f00;stop-opacity:1"/></linearGradient></defs></svg>