<svg height="616.69px" width="500px" id="castle">
 <defs>
    <linearGradient id="grad1" x1="0%" y1="100%" x2="0%" y2="0%">
      <stop offset="0%" style="stop-color:rgb(255,0,0);stop-opacity:1" />
      <stop offset="100%" style="stop-color:rgb(255,255,0);stop-opacity:1" />
    </linearGradient>
  </defs>
  <polygon class="st0" points="484.1,363.6 477.2,375.7 484.1,416.6 300,610.5 257.5,610.5 43.2,404.5 43.9,356 37.1,343.1 39,264.2
	20.1,233.9 39.8,211.9 67.8,71.7 88.6,197.7 116.6,237.1 100,265.1 95.4,332.5 137.8,298.4 147.7,266.6 168.9,252.2 243.2,134
	250,72.7 283.3,68.9 311.3,42.4 328,68.1 375,72.7 386.3,114.3 369.7,135.5 376.5,343.9 411.3,308.3 440.9,342.3 " fill="url(#grad1)"/>
</svg>
