<?xml version="1.0" encoding="utf-8"?>
<!-- Generator: Adobe Illustrator 22.1.0, SVG Export Plug-In . SVG Version: 6.00 Build 0)  -->
<svg version="1.1" id="fish" xmlns="http://www.w3.org/2000/svg" x="0px" y="0px"
     viewBox="0 0 500 120" style="enable-background:new 0 0 500 120;" xml:space="preserve">
<style type="text/css">
	.st0{fill:none;stroke:#165A8A;stroke-width:3;stroke-miterlimit:10;}
	.st1{fill:#F9B233;}
	.st2{fill:#FFFFFF;}
</style>
<g>
	<g>
		<g>
			<g>
				<path class="st0" d="M-316.9,81.6c0.1,0,0.1,2.8,0.1,2.8c0.1,0,0.1-2.8,0.1-2.8c0.1,0,0.1,2.8,0.1,2.8c0.1,0,0.1-2.8,0.1-2.8
					c0.1,0,0.1,2.8,0.1,2.8c0.1,0,0.1-2.8,0.1-2.8c0.1,0,0.1,2.8,0.1,2.8c0.1,0,0.1-2.8,0.1-2.8c0.1,0,0.1,2.8,0.1,2.8
					c0.1,0,0.1-2.8,0.1-2.8c0.1,0,0.1,2.8,0.1,2.8c0.1,0,0.1-2.8,0.1-2.8c0.1,0,0.1,2.8,0.1,2.8c0.1,0,0.1-2.8,0.1-2.8
					c0.1,0,0.1,2.8,0.1,2.8c0.1,0,0.1-2.8,0.1-2.8c0.1,0,0.1,2.8,0.1,2.8c0.1,0,0.1-2.8,0.1-2.8c0.1,0,0.1,2.8,0.1,2.8
					c0.1,0,0.1-2.8,0.1-2.8c0.1,0,0.1,2.8,0.1,2.8c0.1,0,0.1-2.8,0.1-2.8c0.1,0,0.1,2.8,0.1,2.8c0.1,0,0.1-2.8,0.1-2.8
					c0.1,0,0.1,2.8,0.1,2.8c0.1,0,0.1-2.8,0.1-2.8c0.1,0,0.1,2.8,0.1,2.8c0.1,0,0.1-2.8,0.1-2.8c0.1,0,0.1,2.8,0.1,2.8
					s0.1-2.8,0.1-2.8s0.1,2.8,0.1,2.8s0.1-2.8,0.1-2.8c0.1,0,0.1,2.8,0.1,2.8s0.1-2.8,0.1-2.8c0.1,0,0.1,2.8,0.1,2.8
					c0.1,0,0.1-2.8,0.1-2.8c0.1,0,0.1,2.8,0.1,2.8c0.1,0,0.1-2.8,0.1-2.8c0.1,0,0.1,2.8,0.1,2.8c0.1,0,0.1-2.8,0.1-2.8
					c0.1,0,0.1,2.8,0.1,2.8c0.1,0,0.1-2.8,0.1-2.8c0.1,0,0.1,2.8,0.1,2.8c0.1,0,0.1-2.8,0.1-2.8c0.1,0,0.1,2.8,0.1,2.8
					c0.1,0,0.1-2.8,0.1-2.8c0.1,0,0.1,2.8,0.1,2.8c0.1,0,0.1-2.8,0.1-2.8c0.1,0,0.1,2.8,0.1,2.8c0.1,0,0.1-2.8,0.1-2.8
					c0.1,0,0.1,2.8,0.1,2.8c0.1,0,0.1-2.8,0.1-2.8c0.1,0,0.1,2.8,0.1,2.8c0.1,0,0.1-2.8,0.2-2.8c0.1,0,0.1,2.8,0.2,2.8
					c0.1,0,0.1-2.8,0.2-2.8c0.1,0,0.1,2.8,0.2,2.8c0.1,0,0.1-2.8,0.2-2.8c0.1,0,0.1,2.8,0.2,2.8c0.1,0,0.1-2.8,0.2-2.8
					c0.1,0,0.1,2.8,0.2,2.8c0.1,0,0.1-2.8,0.1-2.8c0.1,0,0.1,2.8,0.1,2.8c0.1,0,0.1-2.8,0.1-2.8c0.1,0,0.1,2.8,0.1,2.8
					s0.1-2.8,0.1-2.8c0.1,0,0.1,2.8,0.1,2.8c0.1,0,0.1-2.8,0.1-2.8c0.1,0,0.1,2.8,0.2,2.8c0.1,0,0.1-2.8,0.2-2.8
					c0.1,0,0.1,2.8,0.2,2.8c0.1,0,0.1-2.8,0.2-2.8c0.1,0,0.1,2.8,0.2,2.8c0.1,0,0.1-2.8,0.2-2.8c0.1,0,0.1,2.8,0.2,2.8
					c0.1,0,0.1-2.8,0.2-2.8c0.1,0,0.1,2.8,0.1,2.8c0.1,0,0.1-2.8,0.1-2.8c0.1,0,0.1,2.8,0.1,2.8c0.1,0,0.1-2.8,0.1-2.8
					c0.1,0,0.1,2.8,0.1,2.8c0.1,0,0.1-2.8,0.1-2.8c0.1,0,0.1,2.8,0.2,2.8c0.1,0,0.1-2.8,0.2-2.8c0.1,0,0.1,2.8,0.2,2.8
					c0.1,0,0.1-2.8,0.2-2.8c0.1,0,0.1,2.8,0.2,2.8c0.1,0,0.1-2.8,0.2-2.8c0.1,0,0.1,2.8,0.2,2.8c0.1,0,0.1-2.8,0.2-2.8
					c0.1,0,0.1,2.8,0.2,2.8c0.1,0,0.1-2.8,0.2-2.8c0.1,0,0.1,2.8,0.2,2.8c0.1,0,0.1-2.8,0.2-2.8c0.1,0,0.1,2.8,0.2,2.8
					c0.1,0,0.1-2.8,0.2-2.8"/>
			</g>
			<g>
				<path class="st0" d="M-274.1,81.6c5.5,0,5.5,2.8,11.1,2.8c5.5,0,5.5-2.8,11.1-2.8c5.5,0,5.5,2.8,11.1,2.8
					c5.5,0,5.5-2.8,11.1-2.8c5.5,0,5.5,2.8,11.1,2.8c5.5,0,5.5-2.8,11.1-2.8c5.5,0,5.5,2.8,11.1,2.8c5.5,0,5.5-2.8,11.1-2.8
					c5.5,0,5.5,2.8,11.1,2.8c5.5,0,5.5-2.8,11.1-2.8c5.5,0,5.5,2.8,11.1,2.8c5.5,0,5.5-2.8,11.1-2.8c5.5,0,5.5,2.8,11.1,2.8
					c5.5,0,5.5-2.8,11.1-2.8c5.5,0,5.5,2.8,11.1,2.8c5.5,0,5.5-2.8,11.1-2.8c5.5,0,5.5,2.8,11.1,2.8c5.5,0,5.5-2.8,11.1-2.8
					c5.5,0,5.5,2.8,11.1,2.8c5.5,0,5.5-2.8,11.1-2.8c5.5,0,5.5,2.8,11.1,2.8c5.5,0,5.5-2.8,11.1-2.8c5.5,0,5.5,2.8,11.1,2.8
					c5.5,0,5.5-2.8,11.1-2.8c5.5,0,5.5,2.8,11.1,2.8c5.5,0,5.5-2.8,11.1-2.8c5.5,0,5.5,2.8,11.1,2.8c5.5,0,5.5-2.8,11.1-2.8
					c5.5,0,5.5,2.8,11.1,2.8c5.5,0,5.5-2.8,11.1-2.8c5.5,0,5.5,2.8,11.1,2.8c5.5,0,5.5-2.8,11.1-2.8c5.5,0,5.5,2.8,11.1,2.8
					c5.5,0,5.5-2.8,11.1-2.8c5.5,0,5.5,2.8,11.1,2.8c5.5,0,5.5-2.8,11.1-2.8c5.5,0,5.5,2.8,11.1,2.8c5.5,0,5.5-2.8,11.1-2.8
					c5.5,0,5.5,2.8,11.1,2.8c5.5,0,5.5-2.8,11.1-2.8c5.5,0,5.5,2.8,11.1,2.8c5.5,0,5.5-2.8,11.1-2.8c5.5,0,5.5,2.8,11.1,2.8
					c5.5,0,5.5-2.8,11.1-2.8c5.5,0,5.5,2.8,11.1,2.8c5.5,0,5.5-2.8,11.1-2.8c5.5,0,5.5,2.8,11.1,2.8c5.5,0,5.5-2.8,11.1-2.8
					c5.5,0,5.5,2.8,11.1,2.8c5.5,0,5.5-2.8,11.1-2.8c5.5,0,5.5,2.8,11.1,2.8c5.5,0,5.5-2.8,11.1-2.8c5.5,0,5.5,2.8,11.1,2.8
					c5.5,0,5.5-2.8,11.1-2.8c5.5,0,5.5,2.8,11.1,2.8c5.5,0,5.5-2.8,11.1-2.8c5.5,0,5.5,2.8,11.1,2.8c5.5,0,5.5-2.8,11.1-2.8
					c5.5,0,5.5,2.8,11.1,2.8c5.5,0,5.5-2.8,11.1-2.8c5.5,0,5.5,2.8,11.1,2.8c5.5,0,5.5-2.8,11.1-2.8c5.5,0,5.5,2.8,11.1,2.8
					c5.5,0,5.5-2.8,11.1-2.8c5.5,0,5.5,2.8,11.1,2.8c5.5,0,5.5-2.8,11.1-2.8c5.5,0,5.5,2.8,11.1,2.8c5.5,0,5.5-2.8,11.1-2.8
					c5.5,0,5.5,2.8,11.1,2.8c5.5,0,5.5-2.8,11.1-2.8c5.5,0,5.5,2.8,11.1,2.8c5.5,0,5.5-2.8,11.1-2.8c5.5,0,5.5,2.8,11.1,2.8
					c5.5,0,5.5-2.8,11.1-2.8c5.5,0,5.5,2.8,11.1,2.8c5.5,0,5.5-2.8,11.1-2.8c5.5,0,5.5,2.8,11.1,2.8c5.5,0,5.5-2.8,11.1-2.8
					c5.5,0,5.5,2.8,11.1,2.8c5.5,0,5.5-2.8,11.1-2.8c5.5,0,5.5,2.8,11.1,2.8c5.5,0,5.5-2.8,11.1-2.8c5.5,0,5.5,2.8,11.1,2.8
					c5.5,0,5.5-2.8,11.1-2.8c5.5,0,5.5,2.8,11.1,2.8c5.5,0,5.5-2.8,11.1-2.8c5.5,0,5.5,2.8,11.1,2.8c5.5,0,5.5-2.8,11.1-2.8
					c5.5,0,5.5,2.8,11.1,2.8c5.5,0,5.5-2.8,11.1-2.8c5.5,0,5.5,2.8,11.1,2.8c5.5,0,5.5-2.8,11.1-2.8c5.5,0,5.5,2.8,11.1,2.8
					c5.5,0,5.5-2.8,11.1-2.8c5.5,0,5.5,2.8,11.1,2.8s5.5-2.8,11.1-2.8"/>
			</g>
			<g>
				<path class="st0" d="M802.6,81.6c0.1,0,0.1,2.8,0.1,2.8c0.1,0,0.1-2.8,0.1-2.8c0.1,0,0.1,2.8,0.1,2.8c0.1,0,0.1-2.8,0.1-2.8
					c0.1,0,0.1,2.8,0.1,2.8c0.1,0,0.1-2.8,0.1-2.8c0.1,0,0.1,2.8,0.1,2.8c0.1,0,0.1-2.8,0.1-2.8c0.1,0,0.1,2.8,0.1,2.8
					c0.1,0,0.1-2.8,0.1-2.8c0.1,0,0.1,2.8,0.1,2.8s0.1-2.8,0.1-2.8s0.1,2.8,0.1,2.8s0.1-2.8,0.1-2.8s0.1,2.8,0.1,2.8
					c0.1,0,0.1-2.8,0.1-2.8c0.1,0,0.1,2.8,0.1,2.8c0.1,0,0.1-2.8,0.1-2.8c0.1,0,0.1,2.8,0.1,2.8c0.1,0,0.1-2.8,0.1-2.8
					c0.1,0,0.1,2.8,0.1,2.8c0.1,0,0.1-2.8,0.1-2.8c0.1,0,0.1,2.8,0.1,2.8c0.1,0,0.1-2.8,0.1-2.8c0.1,0,0.1,2.8,0.1,2.8
					s0.1-2.8,0.1-2.8c0.1,0,0.1,2.8,0.1,2.8c0.1,0,0.1-2.8,0.1-2.8s0.1,2.8,0.1,2.8c0.1,0,0.1-2.8,0.1-2.8s0.1,2.8,0.1,2.8
					s0.1-2.8,0.1-2.8s0.1,2.8,0.1,2.8s0.1-2.8,0.1-2.8s0.1,2.8,0.1,2.8c0.1,0,0.1-2.8,0.1-2.8c0.1,0,0.1,2.8,0.1,2.8
					s0.1-2.8,0.1-2.8c0.1,0,0.1,2.8,0.1,2.8c0.1,0,0.1-2.8,0.1-2.8c0.1,0,0.1,2.8,0.1,2.8c0.1,0,0.1-2.8,0.1-2.8
					c0.1,0,0.1,2.8,0.1,2.8c0.1,0,0.1-2.8,0.1-2.8c0.1,0,0.1,2.8,0.1,2.8c0.1,0,0.1-2.8,0.1-2.8c0.1,0,0.1,2.8,0.1,2.8
					c0.1,0,0.1-2.8,0.1-2.8c0.1,0,0.1,2.8,0.1,2.8c0.1,0,0.1-2.8,0.1-2.8c0.1,0,0.1,2.8,0.1,2.8c0.1,0,0.1-2.8,0.1-2.8
					c0.1,0,0.1,2.8,0.1,2.8c0.1,0,0.1-2.8,0.2-2.8c0.1,0,0.1,2.8,0.2,2.8c0.1,0,0.1-2.8,0.2-2.8c0.1,0,0.1,2.8,0.2,2.8
					c0.1,0,0.1-2.8,0.2-2.8c0.1,0,0.1,2.8,0.2,2.8c0.1,0,0.1-2.8,0.2-2.8c0.1,0,0.1,2.8,0.2,2.8c0.1,0,0.1-2.8,0.1-2.8
					c0.1,0,0.1,2.8,0.1,2.8s0.1-2.8,0.1-2.8s0.1,2.8,0.1,2.8c0.1,0,0.1-2.8,0.1-2.8c0.1,0,0.1,2.8,0.1,2.8c0.1,0,0.1-2.8,0.1-2.8
					c0.1,0,0.1,2.8,0.2,2.8c0.1,0,0.1-2.8,0.2-2.8c0.1,0,0.1,2.8,0.2,2.8c0.1,0,0.1-2.8,0.2-2.8c0.1,0,0.1,2.8,0.2,2.8
					c0.1,0,0.1-2.8,0.2-2.8c0.1,0,0.1,2.8,0.2,2.8c0.1,0,0.1-2.8,0.2-2.8c0.1,0,0.1,2.8,0.1,2.8c0.1,0,0.1-2.8,0.1-2.8
					c0.1,0,0.1,2.8,0.1,2.8c0.1,0,0.1-2.8,0.1-2.8c0.1,0,0.1,2.8,0.1,2.8c0.1,0,0.1-2.8,0.1-2.8c0.1,0,0.1,2.8,0.2,2.8
					c0.1,0,0.1-2.8,0.2-2.8c0.1,0,0.1,2.8,0.2,2.8c0.1,0,0.1-2.8,0.2-2.8c0.1,0,0.1,2.8,0.2,2.8c0.1,0,0.1-2.8,0.2-2.8
					c0.1,0,0.1,2.8,0.2,2.8c0.1,0,0.1-2.8,0.2-2.8c0.1,0,0.1,2.8,0.2,2.8c0.1,0,0.1-2.8,0.2-2.8c0.1,0,0.1,2.8,0.2,2.8
					c0.1,0,0.1-2.8,0.2-2.8c0.1,0,0.1,2.8,0.2,2.8c0.1,0,0.1-2.8,0.2-2.8"/>
			</g>
		</g>
	</g>
</g>
<path id="svgmeter" class="st1" d="M269.9,92.8c-2.6-2.1-6.8-6.3-12-9.8c5.2-3.6,9.4-7.8,12-9.8l2-13.2l-4.2,3.5
	c-3.7,3.1-10.2,8.1-17.9,13.1c-12.4-7.6-27.3-14.7-39.6-14.7c-26.4,0-40.9,16.7-41.5,17.4c-1.7,2-1.8,5.1,0,7.1
	c0.6,0.7,15.1,17.6,41.5,17.6c12.3,0,27.3-7.1,39.7-14.6c7.7,5,14.2,10,17.9,13.1l4.2,3.5L269.9,92.8z M210.2,93
	c-14.3,0-29.3-10.1-29.3-10.1s15-10,29.2-10c8.2,0,29,10.1,29,10.1S218.4,93,210.2,93z"/>
<circle class="st2" cx="250.1" cy="83.1" r="3.4"/>
</svg>
